<?xml version="1.0" encoding="utf-8"?>
<!-- Generator: Adobe Illustrator 28.3.0, SVG Export Plug-In . SVG Version: 6.00 Build 0)  -->
<svg version="1.1" id="Capa_1" xmlns="http://www.w3.org/2000/svg" xmlns:xlink="http://www.w3.org/1999/xlink" x="0px" y="0px"
	 viewBox="0 0 512 512" style="enable-background:new 0 0 512 512;" xml:space="preserve">
<style type="text/css">
	.st0{fill:#008E2B;}
	.st1{fill:#057C2A;}
	.st2{fill:#424242;}
	.st3{fill:#2D2D2D;}
	.st4{fill:#05AA3C;}
	.st5{fill:#D6AC9D;}
	.st6{fill:#FFE150;}
	.st7{fill:#E2BAAA;}
	.st8{fill:#FFD5BE;}
	.st9{fill:#19303F;}
	.st10{fill:#F0EEEE;}
	.st11{fill:#FFFFFF;}
</style>
<path class="st0" d="M308.9,355.9H203.1c-45.7,0-82.9,37.2-82.9,82.9v65.7c0,4.1,3.4,7.5,7.5,7.5h256.6c4.1,0,7.5-3.4,7.5-7.5v-65.7
	C391.8,393.1,354.6,355.9,308.9,355.9z"/>
<path class="st1" d="M308.9,355.9h-26.2c45.7,0,82.9,37.2,82.9,82.9v65.7c0,4.1-3.4,7.5-7.5,7.5h26.2c4.1,0,7.5-3.4,7.5-7.5v-65.7
	C391.8,393.1,354.6,355.9,308.9,355.9z"/>
<path class="st2" d="M308.9,355.9H203.1c-45.7,0-82.9,37.2-82.9,82.9v24.6h271.6v-24.6C391.8,393.1,354.6,355.9,308.9,355.9z"/>
<path class="st3" d="M308.9,355.9h-26.2c45.7,0,82.9,37.2,82.9,82.9v24.6h26.2v-24.6C391.8,393.1,354.6,355.9,308.9,355.9z"/>
<g>
	<path class="st4" d="M237.2,512v-74.1l35.6-39.2c2.8-3.1,2.6-7.8-0.5-10.6s-7.8-2.6-10.6,0.5L224.2,430c-1.3,1.4-2,3.2-2,5v77
		L237.2,512L237.2,512z"/>
	<path class="st4" d="M319.7,354.3l-23.3-17.5c-1.8-1.4-4.1-1.8-6.3-1.3c-2.2,0.6-4,2.1-5,4.1l-28,60.7c-0.9,1.9-0.9,4.1-0.1,6
		s2.3,3.4,4.3,4.2l45.6,17.2c1.5,0.6,3.1,0.9,4.7,0.9c2.6,0,5.1-0.7,7.3-2.2c3.5-2.3,5.8-6.2,6-10.4l2.4-45.8
		C327.5,364,324.7,358.1,319.7,354.3z"/>
	<path class="st4" d="M226.9,339.6c-0.9-2.1-2.8-3.6-5-4.1c-2.2-0.6-4.5-0.1-6.3,1.3l-23.3,17.5c-5,3.7-7.7,9.7-7.4,15.9l2.4,45.8
		c0.2,4.2,2.5,8.1,6,10.4c2.2,1.4,4.7,2.2,7.3,2.2c1.6,0,3.2-0.3,4.7-0.9l45.6-17.2c1.9-0.7,3.5-2.2,4.3-4.2s0.7-4.1-0.1-6
		L226.9,339.6z"/>
</g>
<path class="st5" d="M298.1,267.7v95.4l-21.3,35.6c-4.4,7.3-12.3,11.8-20.8,11.8l0,0c-8.5,0-16.4-4.5-20.8-11.8l-21.3-35.6v-95.4
	H298.1L298.1,267.7z"/>
<rect x="112" y="128.5" class="st6" width="288" height="126.5"/>
<path class="st7" d="M125.8,224h49.4v56.6h-49.4c-15.6,0-28.3-12.7-28.3-28.3S110.2,224,125.8,224z"/>
<path class="st5" d="M386.2,224h-49.4v56.6h49.4c15.6,0,28.3-12.7,28.3-28.3S401.8,224,386.2,224z"/>
<path class="st8" d="M256,342.8L256,342.8c-61.9,0-112.1-50.2-112.1-112.1V117.3h224.2v113.4C368.1,292.6,317.9,342.8,256,342.8z"/>
<path class="st7" d="M344.8,117.3v125.1c0,53.6-41.9,97.4-94.8,100.3c2,0.1,4,0.2,6,0.2l0,0c61.9,0,112.1-50.2,112.1-112.1V117.3
	H344.8z"/>
<g>
	<path class="st9" d="M310.3,233c-4.1,0-7.5-3.4-7.5-7.5v-2c0-4.1,3.4-7.5,7.5-7.5s7.5,3.4,7.5,7.5v2
		C317.8,229.6,314.5,233,310.3,233z"/>
	<path class="st9" d="M201.7,233c-4.1,0-7.5-3.4-7.5-7.5v-2c0-4.1,3.4-7.5,7.5-7.5s7.5,3.4,7.5,7.5v2
		C209.2,229.6,205.8,233,201.7,233z"/>
	<path class="st9" d="M256,288.5c-13.5,0-26.1-6.6-33.8-17.7c-2.4-3.4-1.5-8.1,1.9-10.4c3.4-2.4,8.1-1.5,10.4,1.9
		c4.9,7.1,12.9,11.3,21.5,11.3c8.6,0,16.6-4.2,21.5-11.3c2.4-3.4,7-4.3,10.4-1.9c3.4,2.4,4.3,7,1.9,10.4
		C282.1,281.9,269.5,288.5,256,288.5z"/>
</g>
<path class="st3" d="M383.3,148.6c-0.9-2.4-2.9-4.2-5.4-4.7c-80.9-18.1-162.9-18.1-243.7,0c-2.5,0.6-4.5,2.3-5.4,4.7
	c-0.9,2.4-0.5,5.1,1,7.1l32.4,43.4c2.3,3,6.5,3.9,9.8,2c21.2-12.3,51.9-19.3,84.1-19.3s62.9,7,84.1,19.3c1.2,0.7,2.5,1,3.8,1
	c2.3,0,4.6-1.1,6-3l32.4-43.4C383.8,153.6,384.1,150.9,383.3,148.6z"/>
<path class="st2" d="M413.8,97.4l-45-81.5c-1.1-2-3.1-3.4-5.5-3.8l-79.9-12C283.1,0,282.7,0,282.3,0h-52.7c-0.4,0-0.7,0-1.1,0.1
	l-79.9,12c-2.3,0.3-4.3,1.7-5.5,3.8l-45,81.5c-0.6,1.1-0.9,2.4-0.9,3.6v58c0,2.3,1.1,4.6,3,6c1.9,1.4,4.3,1.9,6.6,1.2
	c49.5-14,99.7-21.1,149.2-21.1s99.7,7.1,149.2,21.1c0.7,0.2,1.4,0.3,2,0.3c1.6,0,3.2-0.5,4.5-1.5c1.9-1.4,3-3.6,3-6v-58
	C414.7,99.7,414.4,98.5,413.8,97.4z"/>
<path class="st3" d="M413.8,97.4l-45-81.5c-1.1-2-3.1-3.4-5.5-3.8l-25.2-3.8c0.5,0.5,0.9,1,1.2,1.6l46.8,84.7c0.6,1.2,1,2.5,1,3.8
	v60.3c0,0.9-0.2,1.8-0.5,2.6c6.2,1.5,12.4,3.2,18.6,4.9c0.7,0.2,1.4,0.3,2,0.3c1.6,0,3.2-0.5,4.5-1.5c1.9-1.4,3-3.6,3-6v-58
	C414.7,99.7,414.4,98.5,413.8,97.4z"/>
<g>
	<path class="st10" d="M256,452.5c-0.5,0-1,0-1.5-0.1c-0.5-0.1-0.9-0.2-1.4-0.4c-0.4-0.2-0.9-0.4-1.3-0.7c-0.4-0.3-0.8-0.6-1.1-0.9
		c-1.4-1.4-2.2-3.3-2.2-5.3c0-0.5,0.1-1,0.1-1.5c0.1-0.5,0.2-1,0.4-1.4c0.2-0.5,0.4-0.9,0.7-1.3c0.3-0.4,0.6-0.8,0.9-1.1
		c0.3-0.4,0.7-0.7,1.1-0.9c0.4-0.3,0.8-0.5,1.3-0.7c0.4-0.2,0.9-0.3,1.4-0.4c2.4-0.5,5,0.3,6.8,2c0.4,0.3,0.7,0.7,0.9,1.1
		c0.3,0.4,0.5,0.8,0.7,1.3c0.2,0.5,0.3,0.9,0.4,1.4c0.1,0.5,0.1,1,0.1,1.5c0,2-0.8,3.9-2.2,5.3C259.9,451.7,258,452.5,256,452.5z"/>
	<path class="st10" d="M256,490.5c-0.5,0-1,0-1.5-0.1c-0.5-0.1-0.9-0.2-1.4-0.4c-0.4-0.2-0.9-0.4-1.3-0.7c-0.4-0.3-0.8-0.6-1.1-0.9
		c-0.4-0.3-0.7-0.7-0.9-1.1c-0.3-0.4-0.5-0.8-0.7-1.3c-0.2-0.5-0.3-0.9-0.4-1.4c-0.1-0.5-0.1-1-0.1-1.5s0.1-1,0.1-1.5
		c0.1-0.5,0.2-1,0.4-1.4c0.2-0.5,0.4-0.9,0.7-1.3c0.3-0.4,0.6-0.8,0.9-1.1c0.3-0.4,0.7-0.7,1.1-0.9c0.4-0.3,0.8-0.5,1.3-0.7
		c0.4-0.2,0.9-0.3,1.4-0.4c2.4-0.5,5,0.3,6.8,2c0.4,0.3,0.7,0.7,0.9,1.1c0.3,0.4,0.5,0.8,0.7,1.3c0.2,0.5,0.3,0.9,0.4,1.4
		c0.1,0.5,0.1,1,0.1,1.5c0,2-0.8,3.9-2.2,5.3C259.9,489.7,258,490.5,256,490.5z"/>
	<path class="st10" d="M344.5,449.5h-30.8c-4.1,0-7.5-3.4-7.5-7.5s3.4-7.5,7.5-7.5h30.8c4.1,0,7.5,3.4,7.5,7.5
		S348.6,449.5,344.5,449.5z"/>
</g>
<g id="Layer-1">
	<path class="st11" d="M272.2,70.5c-2.1,0-3.8-1.7-3.8-3.8c0-2.1,1.7-3.8,3.8-3.8s3.8,1.7,3.8,3.8C275.9,68.8,274.3,70.5,272.2,70.5
		 M272.2,59.1c-4.2,0-7.6,3.4-7.6,7.6v22.8c0,8.4-6.8,15.2-15.2,15.2s-15.2-6.8-15.2-15.2V66.7c0-4.2-3.4-7.6-7.6-7.6
		s-7.6,3.4-7.6,7.6v22.8c0,16.8,13.7,30.5,30.5,30.5c16.8,0,30.5-13.7,30.5-30.5V66.7C279.8,62.5,276.4,59.1,272.2,59.1"/>
	<path class="st11" d="M338.3,116.2c-2.1,0-3.8-1.7-3.8-3.8s1.7-3.8,3.8-3.8s3.8,1.7,3.8,3.8S340.4,116.2,338.3,116.2 M304.7,89.6
		L287.3,107c-3,3-3,7.8,0,10.8c3,3,7.8,3,10.8,0l17.5-17.5l17.5,17.5c3,3,7.8,3,10.8,0c3-3,3-7.8,0-10.8l-17.5-17.5l0,0l17.5-17.5
		c3-3,3-7.8,0-10.8s-7.8-3-10.8,0l-17.5,17.5L298,61.3c-3-3-7.8-3-10.8,0c-3,3-3,7.8,0,10.8L304.7,89.6L304.7,89.6z"/>
	<path class="st11" d="M204.3,116.2c-2.1,0-3.8-1.7-3.8-3.8s1.7-3.8,3.8-3.8s3.8,1.7,3.8,3.8S206.4,116.2,204.3,116.2 M207.3,59.7
		c-2.8-1.2-6.1-0.5-8.3,1.6l-17.5,17.5L164,61.3c-2.2-2.2-5.5-2.8-8.3-1.6c-2.8,1.2-4.7,4-4.7,7v45.7c0,4.2,3.4,7.6,7.6,7.6
		c4.2,0,7.6-3.4,7.6-7.6V85.1l9.8,9.8c3,3,7.8,3,10.8,0l9.8-9.8v27.3c0,4.2,3.4,7.6,7.6,7.6c4.2,0,7.6-3.4,7.6-7.6V66.7
		C212,63.7,210.1,60.9,207.3,59.7"/>
</g>
</svg>
